<svg version="1.1" xmlns="http://www.w3.org/2000/svg" viewBox="0 0 1108.4322432878232 278.595238095238" width="1108.4322432878232" height="278.595238095238">
  <!-- svg-source:excalidraw -->
  
  <defs>
    <style class="style-fonts">
      @font-face {
        font-family: "Virgil";
        src: url("https://excalidraw.com/Virgil.woff2");
      }
      @font-face {
        font-family: "Cascadia";
        src: url("https://excalidraw.com/Cascadia.woff2");
      }
    </style>
  </defs>
  <g stroke-linecap="round" transform="translate(10 42.982702174772356) rotate(0 108.50000000000003 54.999999999999986)"><path d="M-1.63 -0.64 L217.08 1.56 L215.54 111.35 L-0.18 110.43" stroke="none" stroke-width="0" fill="#ffb562"></path><path d="M0.32 -1.1 C60.3 -1.18, 119.97 -1.56, 216.02 -1.42 M0.07 -0.73 C61.9 -0.11, 122.64 -0.16, 216.19 -0.13 M216.87 -0.39 C215.21 42.18, 217.3 79.5, 215.66 111.14 M216.09 -0.7 C217.41 29.58, 217.02 60, 217.35 109.1 M217.03 109.07 C145.74 109.62, 70.47 108.12, 0.89 109.96 M217.77 109.46 C171.57 108.63, 124.3 109.01, 0.67 109.43 M-0.66 110.59 C1.71 70.02, 0.8 29.33, -1.91 0.17 M0.01 110.26 C-0.53 69.78, 0.05 29.53, -0.2 -0.79" stroke="#000000" stroke-width="1" fill="none"></path></g><g transform="translate(59 75.98270217477238) rotate(0 61 25)"><text x="0" y="18" font-family="Virgil, Segoe UI Emoji" font-size="20px" fill="#000000" text-anchor="start" style="white-space: pre;" direction="ltr">válaszd ki a</text><text x="0" y="43" font-family="Virgil, Segoe UI Emoji" font-size="20px" fill="#000000" text-anchor="start" style="white-space: pre;" direction="ltr">kisbarátod</text></g><g stroke-linecap="round"><g transform="translate(173.75347593733466 164.07659938992043) rotate(0 28.060974884637574 19.183789173402516)"><path d="M-1.1 1.08 C1.28 4.21, 3.86 11.89, 13.58 17.84 C23.3 23.79, 49.94 33.67, 57.22 36.79 M0.53 0.6 C2.87 3.94, 3.68 12.69, 12.96 18.88 C22.25 25.08, 48.83 34.7, 56.22 37.76" stroke="#000000" stroke-width="1" fill="none"></path></g><g transform="translate(173.75347593733466 164.07659938992043) rotate(0 28.060974884637574 19.183789173402516)"><path d="M33.79 38.22 C36.26 36.77, 42.59 37.01, 54.8 35.81 M32.87 37.07 C40.61 37.4, 50.42 37.31, 56.08 37.7" stroke="#000000" stroke-width="1" fill="none"></path></g><g transform="translate(173.75347593733466 164.07659938992043) rotate(0 28.060974884637574 19.183789173402516)"><path d="M39.85 22.79 C40.73 25.01, 45.6 28.98, 54.8 35.81 M38.93 21.64 C44.38 27.74, 51.94 33.35, 56.08 37.7" stroke="#000000" stroke-width="1" fill="none"></path></g></g><g stroke-linecap="round" transform="translate(242.79239038537543 165.2064588070687) rotate(0 114.5 47)"><path d="M1.19 -1.78 L227.09 -0.14 L229.56 95.3 L1.68 94.13" stroke="none" stroke-width="0" fill="#f87474"></path><path d="M1.18 -0.08 C67.8 0.72, 139.86 0.56, 227.59 0.67 M0.55 0.25 C71.73 -0.35, 142.66 -0.84, 229.21 -0.02 M229.95 -0.89 C227.33 18, 230.33 39.73, 227.35 94.99 M229.11 0.33 C228.64 25.74, 230.1 50.03, 228.15 93.47 M228.47 95.48 C147.12 91.35, 60.96 92.83, 0.5 93.27 M228.35 94.62 C178.37 95.42, 126.47 94.19, -0.51 94.75 M0.16 92.04 C-0.52 72.9, -1.87 54.79, -0.03 1.19 M-0.37 94.63 C-0.47 61.19, 0.18 28.05, 0.66 -0.05" stroke="#000000" stroke-width="1" fill="none"></path></g><g transform="translate(284.7923903853754 186.2064588070687) rotate(0 70.5 25)"><text x="0" y="18" font-family="Virgil, Segoe UI Emoji" font-size="20px" fill="#000000" text-anchor="start" style="white-space: pre;" direction="ltr">helyezd bele a</text><text x="0" y="43" font-family="Virgil, Segoe UI Emoji" font-size="20px" fill="#000000" text-anchor="start" style="white-space: pre;" direction="ltr">kosárba</text></g><g stroke-linecap="round" transform="translate(492.4669387596189 10) rotate(0 98 60)"><path d="M0.94 0.21 L196.05 -0.08 L196.08 118.75 L-0.48 119.67" stroke="none" stroke-width="0" fill="#ffb562"></path><path d="M-0.42 -0.51 C72.55 1.65, 147.78 0.48, 197.66 -1.58 M-0.02 0.76 C71.5 1.64, 142.16 2.41, 195.52 -0.91 M196.98 -0.72 C196.47 43, 196.39 84.4, 195.92 121.71 M195.13 0.89 C194.93 46.91, 194.6 95.72, 195.14 119.05 M197.63 119.1 C144.17 118.07, 89.87 118.61, 1.56 118.72 M195.9 119.47 C130.26 120.09, 65.51 119.4, 0.93 120.71 M0.6 121.72 C1.35 89.85, 2.18 60.95, 1.51 1.73 M-0.31 120.44 C-0.96 89.89, -1.01 58.99, -0.65 0.01" stroke="#000000" stroke-width="1" fill="none"></path></g><g transform="translate(505.4669387596189 37) rotate(0 82.5 37.5)"><text x="0" y="18" font-family="Virgil, Segoe UI Emoji" font-size="20px" fill="#000000" text-anchor="start" style="white-space: pre;" direction="ltr">töltsd ki az</text><text x="0" y="43" font-family="Virgil, Segoe UI Emoji" font-size="20px" fill="#000000" text-anchor="start" style="white-space: pre;" direction="ltr">örökbefogadásról</text><text x="0" y="68" font-family="Virgil, Segoe UI Emoji" font-size="20px" fill="#000000" text-anchor="start" style="white-space: pre;" direction="ltr">szóló adatokat</text></g><g stroke-linecap="round"><g transform="translate(481.7923903853754 194.61172136752958) rotate(0 36.285923208858094 -24.911590015434882)"><path d="M0.13 -0.87 C8 -4.33, 35.92 -13.45, 48.21 -21.83 C60.49 -30.2, 69.78 -46.34, 73.83 -51.12 M-1.26 1.29 C6.43 -2.44, 35.25 -15.13, 47.66 -23.69 C60.06 -32.24, 69.07 -45.77, 73.15 -50.04" stroke="#000000" stroke-width="1" fill="none"></path></g><g transform="translate(481.7923903853754 194.61172136752958) rotate(0 36.285923208858094 -24.911590015434882)"><path d="M65.22 -30.66 C70.07 -38.54, 71.03 -47.59, 73.42 -50.14 M66.7 -32.01 C68.13 -36.42, 69.37 -40.76, 73.12 -49.3" stroke="#000000" stroke-width="1" fill="none"></path></g><g transform="translate(481.7923903853754 194.61172136752958) rotate(0 36.285923208858094 -24.911590015434882)"><path d="M55.08 -39.11 C63.72 -43.78, 68.54 -49.61, 73.42 -50.14 M56.56 -40.46 C60.35 -42.87, 63.92 -45.27, 73.12 -49.3" stroke="#000000" stroke-width="1" fill="none"></path></g></g><g stroke-linecap="round" transform="translate(682.5224943151743 208.59523809523802) rotate(0 133.125 30)"><path d="M-1.15 -1.63 L266.7 -0.13 L268.03 60.96 L-0.96 58.09" stroke="none" stroke-width="0" fill="#f87474"></path><path d="M0.11 -0.02 C80.84 1.35, 160.44 0.48, 265.46 0.97 M-0.58 0.13 C64.34 -1.5, 128.43 -1.04, 265.57 0.63 M266.45 0.44 C264.63 14.38, 264.15 28.44, 264.28 61.23 M267 -0.71 C266.43 17.96, 265.15 34.04, 265.39 59.28 M267.24 60.61 C200.42 59.81, 135 59.26, 0.83 61.57 M265.79 59.59 C209.55 59.61, 151.25 60.34, -0.64 60.14 M1.42 58.57 C0.6 41.84, -1.58 20.16, 1.6 0.81 M0.56 59.17 C-0.02 39.89, -0.87 21.06, 0.65 0.56" stroke="#000000" stroke-width="1" fill="none"></path></g><g stroke-linecap="round"><g transform="translate(610.0224943151743 149.84523809523802) rotate(0 30.497224768249396 56.14714401501601)"><path d="M-0.87 -0.62 C-0.84 16.97, -12.16 86.95, -0.87 104.54 C10.42 122.13, 55.68 105, 66.88 104.93 M0.88 1.67 C0.92 19.57, -12.23 89.3, -1.29 106.17 C9.64 123.03, 55.18 103.02, 66.51 102.83" stroke="#000000" stroke-width="1" fill="none"></path></g><g transform="translate(610.0224943151743 149.84523809523802) rotate(0 30.497224768249396 56.14714401501601)"><path d="M40.25 120.75 C47.17 116.99, 53.12 112.53, 65.9 103.96 M40.44 119.35 C47.02 114.43, 52.52 111.98, 66.27 102.37" stroke="#000000" stroke-width="1" fill="none"></path></g><g transform="translate(610.0224943151743 149.84523809523802) rotate(0 30.497224768249396 56.14714401501601)"><path d="M35.71 100.74 C43.43 101.35, 50.37 101.22, 65.9 103.96 M35.9 99.34 C43.65 99.07, 50.21 101.32, 66.27 102.37" stroke="#000000" stroke-width="1" fill="none"></path></g></g><g transform="translate(697.5224943151743 223.34523809523802) rotate(0 120 12.5)"><text x="0" y="18" font-family="Virgil, Segoe UI Emoji" font-size="20px" fill="#000000" text-anchor="start" style="white-space: pre;" direction="ltr">várj a visszajelzésünkre</text></g><g stroke-linecap="round" transform="translate(920.9322432878232 46.674945562153255) rotate(0 88.75 34.375)"><path d="M1.33 -1.56 L176.62 1.16 L178.71 70.58 L-0.24 67.53" stroke="none" stroke-width="0" fill="#3ab0ff"></path><path d="M1.02 0.01 C56.31 -0.21, 111.98 1.56, 179.15 0.11 M0.96 0.15 C37.5 0.47, 75.38 0.59, 178.11 0.76 M176.96 -1.9 C176.75 19.43, 178.28 36.77, 178.66 70.15 M176.58 0.67 C176.94 24.09, 176.69 49.67, 178.16 69.45 M176.34 70.1 C135.02 68.5, 95.25 72.21, -1.83 69.02 M177.41 68.83 C134.54 68.22, 94.16 67.57, -0.14 69.02 M-1.57 69.56 C0.2 52.35, -1.73 33.03, -1.05 1.83 M0.78 67.76 C-0.86 41.66, -1.48 14.62, 0.79 0.55" stroke="#000000" stroke-width="1" fill="none"></path></g><g transform="translate(933.4322432878232 70.17494556215325) rotate(0 68.5 12.5)"><text x="0" y="18" font-family="Virgil, Segoe UI Emoji" font-size="20px" fill="#000000" text-anchor="start" style="white-space: pre;" direction="ltr">gyere el érte!</text></g><g stroke-linecap="round"><g transform="translate(831.2724943151743 198.59523809523802) rotate(0 38.70094599264405 -51.364872678620515)"><path d="M1.05 0.07 C2.62 -12.85, -4.34 -60.96, 8.36 -78.11 C21.06 -95.25, 65.81 -98.78, 77.26 -102.8 M0.14 -0.93 C2.19 -13.65, -2.12 -60.07, 10.62 -76.88 C23.35 -93.68, 65.44 -97.72, 76.55 -101.75" stroke="#000000" stroke-width="1" fill="none"></path></g><g transform="translate(831.2724943151743 198.59523809523802) rotate(0 38.70094599264405 -51.364872678620515)"><path d="M51.61 -86.7 C55.86 -88.76, 61.25 -92.53, 76.68 -103.35 M52.24 -85.73 C60.78 -91.12, 68.93 -97.13, 75.76 -102.6" stroke="#000000" stroke-width="1" fill="none"></path></g><g transform="translate(831.2724943151743 198.59523809523802) rotate(0 38.70094599264405 -51.364872678620515)"><path d="M46.87 -106.67 C52.01 -104.58, 58.4 -104.16, 76.68 -103.35 M47.49 -105.7 C57.65 -104.27, 67.42 -103.45, 75.76 -102.6" stroke="#000000" stroke-width="1" fill="none"></path></g></g></svg>